<svg width="349" height="128" viewBox="0 0 349 128" fill="none" xmlns="http://www.w3.org/2000/svg">
<path d="M121.626 82.0764C118.044 86.5925 102.471 102.166 60.5793 102.166C21.3351 102.166 6.07349 88.617 1.5573 83.1665C1.24583 82.855 0.622911 83.1665 0.778642 83.6337L2.33595 90.1744C6.07349 102.166 16.196 109.796 27.4086 115.558C33.4821 118.673 46.875 121.788 61.3579 121.788C81.1358 121.788 94.0614 117.583 103.094 112.288C110.257 108.239 116.175 102.477 118.823 94.6905L122.249 82.3878C122.249 82.0764 121.781 81.9206 121.626 82.0764Z" fill="#E11D48"/>
<path d="M111.971 86.2811C109.635 81.2977 99.5121 66.0361 61.358 66.0361C22.7368 66.0361 14.483 82.5435 12.77 87.8384C23.9826 94.6905 41.4245 99.2067 61.2023 99.2067C82.3817 99.051 100.914 93.9119 111.971 86.2811Z" fill="#E11D48"/>
<path d="M61.358 40.652C27.4086 40.652 0 53.7334 0 69.7736C0 75.6914 3.73754 81.2977 10.2782 85.9696C12.6142 79.1175 22.4252 62.9215 61.5137 62.9215C100.135 62.9215 111.348 78.0274 114.462 84.4123C119.601 80.2076 122.56 75.2242 122.56 69.9294C122.56 53.7334 95.1515 40.652 61.358 40.652Z" fill="#E11D48"/>
<path d="M125.986 12.4647C120.38 14.9564 113.372 21.6528 104.34 31.7753C101.692 34.7342 98.2661 37.0702 94.5286 38.6275L89.7009 40.652C89.7009 40.652 104.963 43.7666 114.151 50.9302C114.151 50.9302 113.372 43.7666 117.577 37.8488C121.781 31.6196 140.158 26.9477 140.158 16.8252C140.158 12.4647 134.551 8.88289 125.986 12.4647ZM130.035 20.8742C128.166 21.9643 126.142 21.8086 125.519 20.7184C124.896 19.6283 125.986 17.9153 127.855 16.8252C129.724 15.735 131.748 15.8908 132.371 16.9809C132.994 18.071 131.904 19.9398 130.035 20.8742Z" fill="#E11D48"/>
<path d="M163.576 53.448C162.509 53.448 161.677 53.1493 161.08 52.552C160.525 51.9547 160.248 51.1227 160.248 50.056V11.272C160.248 10.1627 160.547 9.33066 161.144 8.776C161.741 8.17866 162.573 7.88 163.64 7.88H178.936C183.8 7.88 187.555 9.096 190.2 11.528C192.845 13.9173 194.168 17.288 194.168 21.64C194.168 26.0347 192.845 29.448 190.2 31.88C187.555 34.2693 183.8 35.464 178.936 35.464H166.904V50.056C166.904 51.1227 166.627 51.9547 166.072 52.552C165.517 53.1493 164.685 53.448 163.576 53.448ZM166.904 30.152H177.976C181.176 30.152 183.587 29.448 185.208 28.04C186.872 26.5893 187.704 24.456 187.704 21.64C187.704 18.8667 186.872 16.776 185.208 15.368C183.587 13.9173 181.176 13.192 177.976 13.192H166.904V30.152ZM209.028 53.576C206.852 53.576 204.889 53.1493 203.14 52.296C201.433 51.4427 200.089 50.2907 199.108 48.84C198.127 47.3893 197.636 45.7467 197.636 43.912C197.636 41.608 198.212 39.7947 199.364 38.472C200.559 37.1067 202.5 36.1467 205.188 35.592C207.919 34.9947 211.588 34.696 216.196 34.696H219.204V38.664H216.26C213.188 38.664 210.756 38.8133 208.964 39.112C207.172 39.4107 205.892 39.9227 205.124 40.648C204.399 41.3307 204.036 42.2907 204.036 43.528C204.036 45.1493 204.591 46.472 205.7 47.496C206.809 48.4773 208.345 48.968 210.308 48.968C211.887 48.968 213.273 48.6053 214.468 47.88C215.663 47.112 216.601 46.088 217.284 44.808C218.009 43.528 218.372 42.056 218.372 40.392V33.032C218.372 30.6 217.86 28.8507 216.836 27.784C215.812 26.7173 214.127 26.184 211.78 26.184C210.415 26.184 208.985 26.3547 207.492 26.696C206.041 27.0373 204.527 27.6133 202.948 28.424C202.223 28.7653 201.604 28.872 201.092 28.744C200.58 28.616 200.175 28.3387 199.876 27.912C199.577 27.4427 199.407 26.952 199.364 26.44C199.364 25.8853 199.492 25.352 199.748 24.84C200.047 24.328 200.537 23.944 201.22 23.688C203.097 22.792 204.953 22.152 206.788 21.768C208.623 21.384 210.351 21.192 211.972 21.192C214.831 21.192 217.177 21.64 219.012 22.536C220.889 23.432 222.276 24.7973 223.172 26.632C224.068 28.4667 224.516 30.8347 224.516 33.736V50.184C224.516 51.208 224.26 52.0187 223.748 52.616C223.236 53.1707 222.489 53.448 221.508 53.448C220.569 53.448 219.823 53.1707 219.268 52.616C218.713 52.0187 218.436 51.208 218.436 50.184V46.024H219.012C218.671 47.6027 218.031 48.968 217.092 50.12C216.196 51.2293 215.065 52.0827 213.7 52.68C212.335 53.2773 210.777 53.576 209.028 53.576ZM236.619 53.448C235.595 53.448 234.806 53.1707 234.251 52.616C233.696 52.0187 233.419 51.208 233.419 50.184V24.584C233.419 23.5173 233.696 22.7067 234.251 22.152C234.806 21.5973 235.574 21.32 236.555 21.32C237.579 21.32 238.347 21.5973 238.859 22.152C239.414 22.7067 239.691 23.5173 239.691 24.584V29.576L238.987 28.424C239.926 26.0347 241.398 24.2427 243.403 23.048C245.408 21.8107 247.712 21.192 250.315 21.192C252.79 21.192 254.838 21.6613 256.459 22.6C258.123 23.496 259.36 24.8827 260.171 26.76C260.982 28.5947 261.387 30.92 261.387 33.736V50.184C261.387 51.208 261.11 52.0187 260.555 52.616C260 53.1707 259.211 53.448 258.187 53.448C257.12 53.448 256.31 53.1707 255.755 52.616C255.2 52.0187 254.923 51.208 254.923 50.184V34.12C254.923 31.432 254.39 29.4693 253.323 28.232C252.299 26.9947 250.678 26.376 248.459 26.376C245.856 26.376 243.766 27.1867 242.187 28.808C240.651 30.4293 239.883 32.6053 239.883 35.336V50.184C239.883 52.36 238.795 53.448 236.619 53.448ZM283.606 53.576C281.046 53.576 278.891 53.128 277.142 52.232C275.393 51.336 274.091 50.0133 273.238 48.264C272.385 46.5147 271.958 44.3813 271.958 41.864V26.76H268.118C267.265 26.76 266.603 26.5467 266.134 26.12C265.665 25.6507 265.43 25.032 265.43 24.264C265.43 23.4533 265.665 22.8347 266.134 22.408C266.603 21.9813 267.265 21.768 268.118 21.768H271.958V15.176C271.958 14.1093 272.235 13.2987 272.79 12.744C273.387 12.1893 274.198 11.912 275.222 11.912C276.246 11.912 277.035 12.1893 277.59 12.744C278.145 13.2987 278.422 14.1093 278.422 15.176V21.768H285.91C286.763 21.768 287.425 21.9813 287.894 22.408C288.363 22.8347 288.598 23.4533 288.598 24.264C288.598 25.032 288.363 25.6507 287.894 26.12C287.425 26.5467 286.763 26.76 285.91 26.76H278.422V41.352C278.422 43.6133 278.891 45.32 279.83 46.472C280.811 47.624 282.39 48.2 284.566 48.2C285.334 48.2 285.995 48.136 286.55 48.008C287.147 47.8373 287.638 47.7307 288.022 47.688C288.491 47.688 288.875 47.8587 289.174 48.2C289.473 48.4987 289.622 49.096 289.622 49.992C289.622 50.632 289.494 51.2293 289.238 51.784C289.025 52.3387 288.619 52.7013 288.022 52.872C287.51 53.0427 286.806 53.192 285.91 53.32C285.057 53.4907 284.289 53.576 283.606 53.576ZM296.933 53.448C295.866 53.448 295.056 53.1707 294.501 52.616C293.946 52.0187 293.669 51.208 293.669 50.184V24.584C293.669 23.5173 293.946 22.7067 294.501 22.152C295.056 21.5973 295.824 21.32 296.805 21.32C297.829 21.32 298.597 21.5973 299.109 22.152C299.664 22.7067 299.941 23.5173 299.941 24.584V29.256H299.301C299.984 26.696 301.242 24.7547 303.077 23.432C304.912 22.1093 307.258 21.3413 310.117 21.128C310.885 21.0853 311.482 21.2773 311.909 21.704C312.378 22.1307 312.634 22.792 312.677 23.688C312.762 24.584 312.57 25.3093 312.101 25.864C311.632 26.376 310.906 26.6747 309.925 26.76L308.709 26.888C305.936 27.144 303.824 28.0187 302.373 29.512C300.922 31.0053 300.197 33.0533 300.197 35.656V50.184C300.197 51.208 299.92 52.0187 299.365 52.616C298.853 53.1707 298.042 53.448 296.933 53.448ZM326.842 64.968C326.074 64.968 325.434 64.7547 324.922 64.328C324.452 63.944 324.175 63.4107 324.09 62.728C324.047 62.088 324.175 61.384 324.474 60.616L328.826 50.824V53.576L316.858 25.736C316.559 24.968 316.452 24.2427 316.538 23.56C316.623 22.8773 316.943 22.344 317.498 21.96C318.052 21.5333 318.799 21.32 319.738 21.32C320.548 21.32 321.188 21.512 321.658 21.896C322.127 22.28 322.554 22.9413 322.938 23.88L332.602 47.752H330.81L340.602 23.88C340.986 22.8987 341.434 22.2373 341.946 21.896C342.458 21.512 343.162 21.32 344.058 21.32C344.826 21.32 345.423 21.5333 345.85 21.96C346.319 22.344 346.596 22.8773 346.682 23.56C346.81 24.2 346.703 24.904 346.362 25.672L330.362 62.472C329.935 63.4533 329.444 64.1147 328.89 64.456C328.378 64.7973 327.695 64.968 326.842 64.968Z" fill="#E11D48"/>
<path d="M162.808 117.384C162.211 117.384 161.741 117.213 161.4 116.872C161.059 116.488 160.888 115.976 160.888 115.336V73.928C160.888 73.2453 161.059 72.7333 161.4 72.392C161.784 72.0507 162.275 71.88 162.872 71.88H177.912C182.691 71.88 186.36 73.032 188.92 75.336C191.48 77.64 192.76 80.9253 192.76 85.192C192.76 89.416 191.48 92.7013 188.92 95.048C186.36 97.352 182.691 98.504 177.912 98.504H164.792V115.336C164.792 115.976 164.621 116.488 164.28 116.872C163.981 117.213 163.491 117.384 162.808 117.384ZM164.792 95.048H177.592C181.304 95.048 184.099 94.216 185.976 92.552C187.853 90.888 188.792 88.4347 188.792 85.192C188.792 81.9493 187.853 79.496 185.976 77.832C184.099 76.1253 181.304 75.272 177.592 75.272H164.792V95.048ZM205.242 117.256C204.602 117.256 204.111 117.064 203.77 116.68C203.428 116.296 203.258 115.784 203.258 115.144V87.752C203.258 87.0693 203.428 86.5573 203.77 86.216C204.111 85.8747 204.602 85.704 205.242 85.704C205.839 85.704 206.308 85.8747 206.65 86.216C206.991 86.5573 207.162 87.0693 207.162 87.752V115.144C207.162 115.784 206.991 116.296 206.65 116.68C206.351 117.064 205.882 117.256 205.242 117.256ZM205.242 77.96C204.346 77.96 203.642 77.7253 203.13 77.256C202.66 76.7867 202.426 76.1253 202.426 75.272C202.426 74.4187 202.66 73.7787 203.13 73.352C203.642 72.8827 204.346 72.648 205.242 72.648C206.138 72.648 206.82 72.8827 207.29 73.352C207.802 73.7787 208.058 74.4187 208.058 75.272C208.058 76.1253 207.802 76.7867 207.29 77.256C206.82 77.7253 206.138 77.96 205.242 77.96ZM229.605 117.512C226.746 117.512 224.528 116.616 222.949 114.824C221.413 113.032 220.645 110.493 220.645 107.208V73.48C220.645 72.7973 220.816 72.3067 221.157 72.008C221.498 71.6667 221.989 71.496 222.629 71.496C223.226 71.496 223.696 71.6667 224.037 72.008C224.378 72.3067 224.549 72.7973 224.549 73.48V106.76C224.549 109.235 225.04 111.091 226.021 112.328C227.002 113.523 228.432 114.12 230.309 114.12C230.736 114.12 231.098 114.099 231.397 114.056C231.696 114.013 231.994 113.992 232.293 113.992C232.677 113.949 232.954 114.035 233.125 114.248C233.338 114.419 233.445 114.803 233.445 115.4C233.445 115.997 233.296 116.445 232.997 116.744C232.698 117.043 232.208 117.256 231.525 117.384C231.226 117.427 230.906 117.448 230.565 117.448C230.266 117.491 229.946 117.512 229.605 117.512ZM254.134 117.512C251.233 117.512 248.716 116.851 246.582 115.528C244.449 114.205 242.785 112.349 241.59 109.96C240.438 107.571 239.862 104.733 239.862 101.448C239.862 99.016 240.182 96.8187 240.822 94.856C241.505 92.8933 242.465 91.208 243.702 89.8C244.982 88.3493 246.497 87.2613 248.246 86.536C250.038 85.768 252.001 85.384 254.134 85.384C257.078 85.384 259.617 86.0453 261.75 87.368C263.884 88.6907 265.527 90.568 266.678 93C267.873 95.3893 268.47 98.2053 268.47 101.448C268.47 103.923 268.129 106.141 267.447 108.104C266.807 110.067 265.846 111.752 264.566 113.16C263.329 114.568 261.836 115.656 260.087 116.424C258.337 117.149 256.353 117.512 254.134 117.512ZM254.134 114.248C256.268 114.248 258.102 113.757 259.639 112.776C261.217 111.752 262.412 110.28 263.222 108.36C264.076 106.44 264.503 104.136 264.503 101.448C264.503 97.3947 263.564 94.2587 261.687 92.04C259.852 89.8213 257.334 88.712 254.134 88.712C252.044 88.712 250.209 89.224 248.63 90.248C247.094 91.2293 245.9 92.68 245.046 94.6C244.236 96.4773 243.83 98.76 243.83 101.448C243.83 105.544 244.769 108.701 246.646 110.92C248.524 113.139 251.02 114.248 254.134 114.248ZM291.382 117.512C289.078 117.512 287.158 117.085 285.622 116.232C284.086 115.379 282.934 114.163 282.166 112.584C281.398 110.963 281.014 108.979 281.014 106.632V89.096H276.278C275.723 89.096 275.275 88.968 274.934 88.712C274.593 88.4133 274.422 88.008 274.422 87.496C274.422 87.0267 274.593 86.664 274.934 86.408C275.275 86.1093 275.723 85.96 276.278 85.96H281.014V77.96C281.014 77.2773 281.185 76.7867 281.526 76.488C281.867 76.1467 282.358 75.976 282.998 75.976C283.595 75.976 284.065 76.1467 284.406 76.488C284.747 76.7867 284.918 77.2773 284.918 77.96V85.96H293.558C294.155 85.96 294.603 86.1093 294.902 86.408C295.201 86.664 295.35 87.0267 295.35 87.496C295.35 88.008 295.201 88.4133 294.902 88.712C294.603 88.968 294.155 89.096 293.558 89.096H284.918V106.12C284.918 108.723 285.451 110.707 286.518 112.072C287.585 113.437 289.355 114.12 291.83 114.12C292.683 114.12 293.387 114.035 293.942 113.864C294.539 113.651 295.03 113.544 295.414 113.544C295.713 113.544 295.969 113.672 296.182 113.928C296.438 114.184 296.566 114.589 296.566 115.144C296.566 115.485 296.481 115.827 296.31 116.168C296.182 116.509 295.926 116.723 295.542 116.808C295.073 116.979 294.433 117.128 293.622 117.256C292.811 117.427 292.065 117.512 291.382 117.512Z" fill="black"/>
<path d="M347.688 118H313.938C313.42 118 313 117.578 313 117.062V116.125C313 110.978 316.637 106.945 321.282 106.945C321.441 106.945 321.597 106.984 321.737 107.063L330.927 112.174L340 107.065C340.142 106.986 340.3 106.945 340.461 106.945C345.038 106.945 348.625 110.976 348.625 116.125V117.062C348.625 117.578 348.203 118 347.688 118ZM344.299 80.5L345.636 76.5006C345.705 76.2954 345.701 76.0726 345.624 75.8702C345.547 75.6677 345.403 75.4982 345.215 75.3906L341.277 73.1237C341.135 73.0426 340.974 73 340.81 73H321.278C321.115 73 320.954 73.0431 320.809 73.1237L316.872 75.3906C316.696 75.492 316.557 75.648 316.477 75.835C316.397 76.0221 316.381 76.2301 316.429 76.4275L317.427 80.5H344.299ZM343 83.1175V82.375H318.625V83.1437C319.859 83.935 324.186 85.0619 330.812 85.0619C337.429 85.0638 341.757 83.9387 343 83.1175Z" fill="black"/>
<path d="M343 87.9456V85.195C339.972 86.5206 334.512 86.9388 330.812 86.9388C327.115 86.9388 321.653 86.5206 318.625 85.195V87.9456C316.75 88.3956 316.75 90.2313 316.75 90.9775V93.175C316.75 94.3881 318.642 96.4919 320.142 97.2067C320.583 102.458 325.879 109.251 331.096 109.251C336.269 109.251 341.337 102.548 341.746 97.1988C343.201 96.4581 344.875 94.3206 344.875 93.175V90.9775C344.875 90.2275 344.875 88.3956 343 87.9456Z" fill="black"/>
</svg>
